<svg width="118" height="298" viewBox="0 0 118 298" fill="none" xmlns="http://www.w3.org/2000/svg">
<path opacity="0.72" d="M48.5465 34.5522C46.6219 31.6965 47.1637 29.6239 46.52 26.4055C45.8763 23.1871 45.3598 21.1308 45.2167 17.8615C45.0379 13.7783 44.698 11.0165 47.0262 7.52923C49.8241 3.33862 53.4006 1.33867 58.7524 0.972168L59.4947 0.972266C64.8465 1.33877 68.423 3.33872 71.2208 7.52933C73.5491 11.0166 73.2092 13.7784 73.0304 17.8616C72.8873 21.1308 72.3708 23.1872 71.7271 26.4056C71.0834 29.624 71.6252 31.6966 69.7006 34.5523M48.5465 34.5522C50.9592 38.1321 56.0023 39.917 58.7524 39.917L59.4947 39.9171C62.2448 39.9171 67.2879 38.1322 69.7006 34.5523M48.5465 34.5522C48.5465 34.5522 48.3667 39.2145 48.0678 40.12M48.0678 40.12C46.3287 41.2216 45.6155 41.6538 43.8417 42.8975C41.4882 44.5477 40.5864 45.9571 38.1234 47.4676C35.0238 49.3684 32.4052 49.587 30.8127 50.3818C30.058 50.7585 28.6681 51.1161 27.3647 51.725M48.0678 40.12C48.3085 42.2376 47.0364 45.9773 47.0364 45.9773C47.0364 45.9773 46.3752 48.4875 45.6604 49.9969C44.7727 51.8714 44.3232 54.7869 42.1783 55.5831M27.3647 51.725C24.4258 53.098 25.585 52.3887 20.5342 56.2765C16.3931 59.4641 14.3377 62.1751 13.151 67.0062C12.2329 70.7442 13.1089 73.0438 13.151 76.8749C13.165 78.1422 12.911 80.9539 12.911 80.9539M27.3647 51.725C27.3647 51.725 29.9013 52.1102 31.958 52.7279C34.1639 53.3904 35.436 54.3088 37.6108 55.0524C39.2951 55.6284 40.2995 56.0091 42.1783 55.5831M12.911 80.9539C12.911 80.9539 10.5873 85.7756 9.60431 89.7903C9.20178 91.4342 8.95804 93.5545 8.81098 95.4358C8.61665 97.9217 8.59113 99.9901 8.59113 99.9901M12.911 80.9539C12.911 80.9539 15.1824 78.2775 19.2538 77.6697C23.5166 77.0333 23.4009 75.7815 25.0997 75.1109M8.59113 99.9901C8.59113 99.9901 3.77764 107.876 2.43847 113.435C0.673443 120.762 2.54669 125.146 2.87272 132.643C3.13727 138.726 3.37931 142.313 3.81371 148.208M8.59113 99.9901C8.59113 99.9901 10.6082 105.321 15.7361 105.433C20.864 105.545 23.2125 101.58 23.2125 101.58M3.81371 148.208C3.90279 149.416 4.7547 151.188 4.7547 151.188C4.7547 151.188 3.81371 160.603 4.7547 164.236C5.47259 167.008 6.16877 168.518 7.57766 171.058C8.98655 173.598 10.4006 175.959 12.2102 177.482C12.8551 178.025 13.932 178.126 14.4541 177.482C14.8415 177.005 15.1056 177.019 14.4541 175.959C13.8027 174.899 12.9556 173.018 12.2102 171.058C11.3065 168.682 10.4485 167.347 10.4006 164.832C10.3631 162.863 11.3416 159.865 11.3416 159.865C11.3416 159.865 11.5901 158.745 12.2102 158.54C13.1363 158.234 13.8027 160.328 13.8027 160.328L15.5399 164.236C15.5399 164.236 16.7416 165.452 17.7114 165.362C18.5385 165.285 19.4486 164.236 19.4486 164.236C19.4486 164.236 19.0199 162.699 18.7248 161.719C18.3492 160.472 18.0866 159.787 17.7114 158.54C17.0544 156.356 17.3576 154.908 16.1913 152.91C15.0873 151.019 12.2102 148.804 12.2102 148.804M3.81371 148.208C3.81371 148.208 5.37284 150.352 8.61619 150.352C11.3416 150.352 12.2102 148.804 12.2102 148.804M12.2102 148.804C12.2102 148.804 13.0597 141.828 14.4541 137.544C16.2379 132.064 18.8109 129.547 21.1134 124.231C22.596 120.809 23.9139 118.986 24.5878 115.356C25.5767 110.03 23.2125 101.58 23.2125 101.58M23.2125 101.58C23.2125 101.58 25.937 96.817 27.1213 93.5655C27.9884 91.1849 28.3722 89.8093 28.8585 87.3397M28.8585 87.3397C28.8585 88.805 29.9465 91.2138 31.0299 93.5655C31.8794 95.4096 32.9153 96.2243 33.5633 98.1356C34.2469 100.152 34.6246 101.635 34.8662 103.735C35.1485 106.187 34.9081 107.755 34.544 110.198C33.9594 114.121 32.7311 115.805 32.5499 119.794C32.437 122.28 32.534 123.698 32.9842 126.152M28.8585 87.3397C29.1489 85.8643 29.2996 80.8094 29.2996 79.5477C29.2996 78.286 29.6593 75.5979 27.6484 74.7429M32.9842 126.152C30.9954 128.723 29.0561 132.834 28.2793 136.617C27.8617 138.651 28.2793 141.915 28.2793 141.915C28.2793 141.915 25.2882 160.605 25.4563 172.647C25.5919 182.36 24.8389 188.122 27.9174 197.419M32.9842 126.152C37.6926 127.067 40.2265 129.836 42.9456 134.354C45.6648 138.872 47.1233 145.407 49.7343 149.774C52.3453 154.141 56.1555 157.676 57.4809 157.676M32.9842 126.152C34.7125 126.327 36.1 126.191 37.6926 125.339C39.2852 124.487 40.6342 121.982 41.2788 120.383C41.9234 118.784 42.8797 116.249 42.9456 114.227C43.0116 112.206 41.8574 110.033 41.8904 108.102C41.9234 106.171 42.3652 103.387 42.6736 101.883C42.9821 100.378 43.5529 98.1356 43.7356 96.0313C43.9183 93.927 44.1467 92.5204 43.2331 91.0575C42.3195 89.5946 40.7665 87.9646 39.2591 86.6271C37.7517 85.2896 32.2604 77.6697 32.2604 77.6697M27.9174 197.419C28.6927 199.76 29.6873 200.919 30.2337 203.313C30.8009 205.799 30.0055 207.338 30.668 209.804C31.1917 211.754 32.7671 214.573 32.7671 214.573C32.7671 214.573 30.0801 222.644 29.7994 232.919C29.4951 244.057 33.6714 249.981 34.8662 261.068C35.6018 267.894 36.4355 276.758 36.2483 280.444M27.9174 197.419C27.9174 197.419 32.0226 203.528 36.293 205.319C39.885 206.826 43.5279 207.12 47.1392 205.652C50.3006 204.368 51.9605 200.166 51.9605 200.166M47.5334 280.872C47.1923 282.344 46.6426 283.184 46.2581 284.467C45.917 285.604 46.6148 286.772 46.8392 287.934C47.2671 290.15 47.0665 291.656 46.6648 293.058C46.3107 294.295 45.7777 295.073 44.5656 295.708C43.4519 296.291 42.5845 295.981 41.3084 296.105C36.3328 296.587 31.5856 296.327 28.4965 296.105C27.778 296.053 27.4472 295.485 27.2659 294.847C27.0021 293.917 27.9645 293.489 28.4965 292.661C29.6516 290.864 30.7678 290.15 32.0433 288.422C33.8215 286.013 34.8859 284.645 36.0244 281.931C36.1407 281.654 36.2128 281.142 36.2483 280.444M47.5334 280.872C48.0657 278.574 46.7537 277.258 46.6648 274.911C46.3674 267.062 46.6648 262.463 47.7505 254.577C48.5922 248.464 51.3504 245.451 52.2383 239.344C53.662 229.551 51.4684 218.299 51.4684 218.299C51.4684 218.299 52.1991 211.009 52.2737 206.429C52.3322 202.834 51.8047 203.758 51.9605 200.166M47.5334 280.872C47.5334 280.872 45.7338 282.245 41.5292 282.245C37.4819 282.245 36.2483 280.444 36.2483 280.444M51.9605 200.166C52.1824 195.051 52.5551 191.209 53.4688 186.159C54.3748 181.152 55.9407 178.533 56.7261 173.508C57.6792 167.411 57.4809 159.013 57.4809 157.676M57.4809 157.676H59.1236L60.7662 157.676M32.2604 77.6697C34.2661 81.2587 38.3719 83.032 42.6736 83.2806C47.7936 83.5765 51.317 82.6753 55.7135 80.0541C58.0151 78.6818 59.1236 76.938 59.1236 74.4243M32.2604 77.6697C31.2743 75.9052 29.6845 74.8256 27.6484 74.7429M59.1236 74.4243C59.1236 69.4937 59.1236 65.0998 59.1236 58.6682M59.1236 74.4243C59.1236 76.938 60.232 78.6819 62.5336 80.0541C66.9301 82.6754 70.4534 83.5766 75.5734 83.2807C79.0735 83.0784 82.444 81.8667 84.6589 79.4889M59.1236 74.4243V58.6682M59.1236 58.6682C59.1236 55.6646 53.9034 55.5334 49.6982 55.0524C46.9839 54.742 44.8084 54.8955 42.1783 55.5831M59.1236 58.6682C59.1236 55.6646 64.3437 55.5335 68.5489 55.0525C71.2631 54.7421 73.4387 54.8956 76.0688 55.5832M25.0997 75.1109C26.9925 73.1222 30.0134 67.0062 30.0134 67.0062C30.0134 67.0062 32.9139 61.3243 36.4802 58.6682C38.4855 57.1747 39.7824 56.4725 42.1783 55.5831M25.0997 75.1109C26.0097 74.8277 26.8623 74.711 27.6484 74.7429M59.1236 87.1225C59.1236 85.6221 59.1236 83.2806 59.1236 83.2806V87.1225ZM59.1236 87.1225C56.9813 87.1225 55.7135 87.4986 54.3093 87.7243C51.8823 88.1144 48.5953 90.1316 48.5953 90.1316M59.1236 87.1225C59.1236 91.3089 59.1236 93.6561 59.1236 97.8426M59.1236 87.1225C61.2658 87.1225 62.5336 87.4987 63.9378 87.7244C66.3648 88.1145 69.6518 90.1317 69.6518 90.1317M59.1236 87.1225V97.8426M59.1236 97.8426C58.1734 97.8426 55.7618 99.0893 53.4871 99.3848C51.3414 99.6635 47.9376 99.3848 47.9376 99.3848M59.1236 97.8426C59.1236 102.884 59.1236 105.44 59.1236 110.481M59.1236 97.8426C60.0737 97.8426 62.4853 99.0894 64.76 99.3849C66.9057 99.6636 70.3095 99.3849 70.3095 99.3849M59.1236 97.8426V110.481M59.1236 110.481C59.1236 112.494 59.1236 113.894 59.1236 115.906V110.481ZM59.1236 110.481C58.0912 110.481 56.9118 111.517 55.3781 111.835C53.1549 112.297 51.7021 112.498 49.5408 111.835C48.6422 111.56 47.3621 110.857 47.3621 110.857M59.1236 110.481C60.1559 110.481 61.3353 111.517 62.869 111.835C65.0922 112.297 66.545 112.498 68.7063 111.835C69.6049 111.56 70.885 110.857 70.885 110.857M69.7006 34.5523C69.7006 34.5523 69.8804 39.2146 70.1793 40.1201M70.1793 40.1201C71.9184 41.2217 72.6316 41.6538 74.4054 42.8976C76.7589 44.5478 77.6607 45.9572 80.1237 47.4676C83.2233 49.3685 85.8419 49.5871 87.4344 50.3819C88.1891 50.7586 89.579 51.1162 90.8824 51.7251M70.1793 40.1201C69.9385 42.2377 71.2107 45.9774 71.2107 45.9774C71.2107 45.9774 71.8719 48.4876 72.5867 49.997C73.4744 51.8715 73.9239 54.787 76.0688 55.5832M90.8824 51.7251C93.8213 53.0981 92.6621 52.3888 97.7129 56.2766C101.854 59.4642 103.909 62.1752 105.096 67.0063C106.014 70.7443 105.138 73.0439 105.096 76.875C105.082 78.1423 105.336 80.954 105.336 80.954M90.8824 51.7251C90.8824 51.7251 88.3458 52.1103 86.2891 52.728C84.0832 53.3905 82.811 54.3089 80.6363 55.0525C78.952 55.6284 77.9476 56.0092 76.0688 55.5832M105.336 80.954C105.336 80.954 107.66 85.7757 108.643 89.7904C109.045 91.4343 109.289 93.5546 109.436 95.4359C109.63 97.9218 109.656 99.9902 109.656 99.9902M105.336 80.954C105.336 80.954 103.065 78.2776 98.9933 77.6698C94.7305 77.0334 94.8462 75.7815 93.1474 75.111M109.656 99.9902C109.656 99.9902 114.469 107.876 115.809 113.435C117.574 120.762 115.7 125.146 115.374 132.643C115.11 138.726 114.868 142.313 114.433 148.208M109.656 99.9902C109.656 99.9902 107.639 105.322 102.511 105.433C97.3831 105.545 95.0345 101.58 95.0345 101.58M114.433 148.208C114.344 149.416 113.492 151.188 113.492 151.188C113.492 151.188 114.433 160.603 113.492 164.236C112.775 167.008 112.078 168.518 110.669 171.058C109.261 173.598 107.846 175.959 106.037 177.483C105.392 178.025 104.315 178.126 103.793 177.483C103.406 177.005 103.142 177.019 103.793 175.959C104.444 174.899 105.291 173.018 106.037 171.058C106.941 168.682 107.799 167.348 107.846 164.832C107.884 162.864 106.905 159.865 106.905 159.865C106.905 159.865 106.657 158.745 106.037 158.54C105.111 158.234 104.444 160.328 104.444 160.328L102.707 164.236C102.707 164.236 101.505 165.452 100.536 165.362C99.7086 165.285 98.7985 164.236 98.7985 164.236C98.7985 164.236 99.2272 162.699 99.5223 161.719C99.8979 160.472 100.161 159.787 100.536 158.54C101.193 156.357 100.889 154.908 102.056 152.91C103.16 151.019 106.037 148.804 106.037 148.804M114.433 148.208C114.433 148.208 112.874 150.352 109.631 150.352C106.905 150.352 106.037 148.804 106.037 148.804M106.037 148.804C106.037 148.804 105.187 141.828 103.793 137.544C102.009 132.064 99.4362 129.547 97.1337 124.231C95.6511 120.809 94.3332 118.986 93.6593 115.356C92.6704 110.03 95.0345 101.58 95.0345 101.58M95.0345 101.58C95.0345 101.58 92.3101 96.8171 91.1258 93.5656C90.2587 91.185 89.8749 89.8094 89.3886 87.3398M89.3886 87.3398C89.3886 88.805 88.3006 91.2138 87.2172 93.5656C86.3677 95.4097 85.3318 96.2243 84.6838 98.1357C84.0002 100.152 83.6225 101.636 83.3809 103.735C83.1015 106.162 83.3453 107.798 83.7031 110.198C84.2877 114.121 85.516 115.805 85.6971 119.794C85.81 122.28 85.7131 123.699 85.2628 126.152M89.3886 87.3398C89.0981 85.8644 88.9475 80.8095 88.9475 79.5478C88.9475 78.2861 88.5878 75.598 90.5987 74.743M85.2628 126.152C87.2517 128.723 89.191 132.834 89.9678 136.617C90.3854 138.651 89.9678 141.916 89.9678 141.916C89.9678 141.916 92.9589 160.605 92.7908 172.648C92.6552 182.36 93.4082 188.122 90.3297 197.419M85.2628 126.152C80.5545 127.067 78.0206 129.836 75.3015 134.354C72.5823 138.872 71.1238 145.408 68.5128 149.774C65.9018 154.141 62.0916 157.676 60.7662 157.676M85.2628 126.152C83.5346 126.327 82.1471 126.191 80.5545 125.339C78.9619 124.487 77.6129 121.982 76.9683 120.383C76.3237 118.784 75.3674 116.249 75.3015 114.227C75.2355 112.206 76.3897 110.033 76.3567 108.102C76.3237 106.171 75.8819 103.388 75.5734 101.883C75.265 100.378 74.6942 98.1357 74.5115 96.0314C74.3288 93.9271 74.1004 92.5205 75.014 91.0576C75.9276 89.5947 77.4806 87.9647 78.988 86.6272C80.0227 85.7091 82.9345 81.8309 84.6589 79.4889M90.3297 197.419C89.5544 199.76 88.5598 200.919 88.0134 203.313C87.4462 205.799 88.2415 207.338 87.5791 209.804C87.0554 211.754 85.48 214.573 85.48 214.573C85.48 214.573 88.167 222.645 88.4477 232.919C88.752 244.057 84.5757 249.981 83.3809 261.068C82.6453 267.894 81.8116 276.759 81.9988 280.444M90.3297 197.419C90.3297 197.419 86.2245 203.528 81.9541 205.319C78.362 206.826 74.7192 207.12 71.1079 205.652C67.9465 204.368 66.2865 200.166 66.2865 200.166M70.7137 280.872C71.0548 282.344 71.6045 283.185 71.989 284.467C72.3301 285.604 71.6323 286.773 71.4079 287.934C70.98 290.15 71.1805 291.656 71.5823 293.059C71.9364 294.295 72.4694 295.073 73.6814 295.708C74.7952 296.291 75.6626 295.982 76.9387 296.105C81.9143 296.588 86.6615 296.327 89.7506 296.105C90.4691 296.054 90.7999 295.485 90.9812 294.847C91.245 293.918 90.2826 293.489 89.7506 292.661C88.5955 290.864 87.4793 290.15 86.2038 288.422C84.4256 286.014 83.3612 284.645 82.2227 281.932C82.1064 281.654 82.0343 281.142 81.9988 280.444M70.7137 280.872C70.1814 278.574 71.4934 277.258 71.5823 274.911C71.8797 267.062 71.5823 262.464 70.4966 254.577C69.6549 248.464 66.8967 245.451 66.0088 239.344C64.5851 229.551 66.7786 218.3 66.7786 218.3C66.7786 218.3 66.048 211.009 65.9734 206.429C65.9149 202.834 66.4423 203.758 66.2865 200.166M70.7137 280.872C70.7137 280.872 72.5133 282.246 76.7179 282.246C80.7652 282.246 81.9988 280.444 81.9988 280.444M66.2865 200.166C66.0647 195.051 65.692 191.209 64.7783 186.159C63.8723 181.152 62.3064 178.533 61.521 173.509C60.5679 167.411 60.7662 159.013 60.7662 157.676M85.9867 77.6698C85.6129 78.3386 85.1662 78.9444 84.6589 79.4889M85.9867 77.6698C85.9867 77.6698 85.4467 78.4191 84.6589 79.4889M85.9867 77.6698C86.9727 75.9053 88.5626 74.8257 90.5987 74.743M93.1474 75.111C91.2546 73.1223 88.2337 67.0063 88.2337 67.0063C88.2337 67.0063 85.3332 61.3244 81.7668 58.6683C79.7615 57.1748 78.4647 56.4726 76.0688 55.5832M93.1474 75.111C92.2374 74.8278 91.3848 74.7111 90.5987 74.743" stroke="white" stroke-width="1.5"/>
</svg>
